<svg xmlns="http://www.w3.org/2000/svg" viewBox="-199 -121 271 271" width="512" height="512">
  <g fill="currentColor">
    <g transform="translate(-49,-50) scale(0.9)">
      <path d="M-158,-50 L-108,-50 C-38,-50 -38,-5 -88,-5 L-88,5 C-38,5 -38,50 -108,50 L-158,50 L-158,30 L-108,30 C-62,30 -62,5 -108,5 L-108,-5 C-62,-5 -62,-30 -108,-30 L-158,-30 Z"/>
    </g>
    <g transform="translate(49,-50) scale(0.9)">
      <path d="M-158,-50 L-108,-50 C-38,-50 -38,-5 -88,-5 L-88,5 C-38,5 -38,50 -108,50 L-158,50 L-158,30 L-108,30 C-62,30 -62,5 -108,5 L-108,-5 C-62,-5 -62,-30 -108,-30 L-158,-30 Z"/>
    </g>
    <path fill="#2196F3" fill-rule="evenodd" transform="translate(0,60)" d="M0,0 m-64,0 a64,64 0 1,0 128,0 a64,64 0 1,0 -128,0 Z M0,0 m-40,0 a40,40 0 1,1 80,0 a40,40 0 1,1 -80,0 Z"/>
  </g>
</svg>
